#!OML:ASF I:\Actors\actors\Patient Classification 2\Patient 1\Session 1\actor1.ASF
:FULLY-SPECIFIED
:DEGREES
751
root -0.573858 18.82 5.13782 27.9178 5.0374 -1.09704
lowerback 27.8932 0.144823 1.85779
upperback 3.08818 0.774708 0.163701
thorax -12.0143 0.268826 -1.17622
lowerneck -1.29305 -15.2121 -15.2311
upperneck -0.935731 -19.9884 3.63398
head 1.91171 -9.9481 2.94726
rclavicle 4.77083e-015 -3.77691e-015
rhumerus 2.63523 26.9296 -71.5481
rradius 45.6939
rwrist 9.64973
rhand -24.7041 -35.3106
rfingers 7.12502
rthumb 1.79738 -65.2828
lclavicle 4.77083e-015 -3.77691e-015
lhumerus 8.40583 -24.1288 75.7083
lradius 44.7125
lwrist -13.1251
lhand -21.8716 -43.3322
lfingers 7.12502
lthumb 4.53278 -13.4007
rfemur -30.1922 -2.27392 15.3792
rtibia 12.7394
rfoot -20.9177 -16.5377
rtoes -4.38911
lfemur -43.3008 -1.36604 -11.1345
ltibia 29.4756
lfoot -14.5058 7.20422
ltoes -56.0383
752
root -0.577199 18.8194 5.1379 27.8952 5.00783 -1.0958
lowerback 27.8332 0.131535 1.86815
upperback 3.12957 0.755302 0.136812
thorax -11.9349 0.260037 -1.20471
lowerneck -1.57193 -15.1273 -15.2793
upperneck -0.306495 -19.8025 3.26383
head 2.11767 -9.87189 2.80173
rclavicle -6.85807e-015 0
rhumerus 2.67788 26.9144 -71.5347
rradius 45.6757
rwrist 9.7223
rhand -24.7616 -35.3956
rfingers 7.12502
rthumb 1.74183 -65.3683
lclavicle -6.85807e-015 0
lhumerus 8.45434 -24.1128 75.6644
lradius 44.6717
lwrist -13.1128
lhand -21.8041 -43.4895
lfingers 7.12502
lthumb 4.59795 -13.5594
rfemur -30.2044 -2.31098 15.4067
rtibia 12.7907
rfoot -20.8667 -16.5013
rtoes -4.58115
lfemur -43.2435 -1.35612 -11.1303
ltibia 29.4257
lfoot -14.4997 7.22121
ltoes -56.0266
753
root -0.581366 18.8195 5.13802 27.8618 4.96065 -1.09068
lowerback 27.8277 0.132427 1.85791
upperback 3.1353 0.749759 0.111546
thorax -11.9253 0.257396 -1.22542
lowerneck -1.67485 -15.0191 -15.331
upperneck 0.218501 -19.6157 2.9804
head 2.27001 -9.7943 2.70456
rclavicle 6.95746e-016 -1.2921e-015
rhumerus 2.68622 26.9304 -71.4912
rradius 45.6653
rwrist 9.70963
rhand -24.8425 -35.4568
rfingers 7.12502
rthumb 1.66366 -65.4301
lclavicle 6.95746e-016 -1.2921e-015
lhumerus 8.44659 -24.147 75.647
lradius 44.6253
lwrist -13.139
lhand -21.8081 -43.6079
lfingers 7.12502
lthumb 4.5941 -13.6777
rfemur -30.1992 -2.29135 15.4046
rtibia 12.8327
rfoot -20.84 -16.4934
rtoes -4.73904
lfemur -43.1589 -1.41336 -11.0946
ltibia 29.3756
lfoot -14.5475 7.31253
ltoes -55.9866
754
root -0.585947 18.8195 5.138 27.8283 4.91437 -1.08677
lowerback 27.8431 0.136689 1.84636
upperback 3.11898 0.749087 0.0879371
thorax -11.9521 0.256439 -1.24568
lowerneck -1.61047 -14.9113 -15.499
upperneck 0.653312 -19.4548 2.78758
head 2.38977 -9.72816 2.66861
rclavicle -1.26228e-014 -7.05686e-015
rhumerus 2.66114 27.021 -71.427
rradius 45.6917
rwrist 9.55281
rhand -24.8893 -35.4688
rfingers 7.12502
rthumb 1.61847 -65.4424
lclavicle -1.26228e-014 -7.05686e-015
lhumerus 8.40914 -24.2457 75.5815
lradius 44.6556
lwrist -13.0874
lhand -21.7938 -43.5697
lfingers 7.12502
lthumb 4.60792 -13.6398
rfemur -30.1772 -2.20962 15.377
rtibia 12.8499
rfoot -20.8877 -16.5086
rtoes -4.59879
lfemur -43.0741 -1.43186 -11.0753
ltibia 29.3307
lfoot -14.5963 7.36501
ltoes -55.955
755
root -0.590567 18.8196 5.13814 27.8151 4.87559 -1.08006
lowerback 27.7901 0.152912 1.8329
upperback 3.12844 0.761768 0.0671308
thorax -11.9128 0.262791 -1.2656
lowerneck -1.59509 -14.794 -15.6019
upperneck 1.11387 -19.2722 2.53095
head 2.51031 -9.65285 2.60006
rclavicle -1.95803e-014 1.04362e-014
rhumerus 2.64962 27.0423 -71.3639
rradius 45.7261
rwrist 9.47831
rhand -24.7746 -35.5187
rfingers 7.12502
rthumb 1.72929 -65.4914
lclavicle -1.95803e-014 1.04362e-014
lhumerus 8.4218 -24.2947 75.5328
lradius 44.687
lwrist -13.0859
lhand -21.7273 -43.535
lfingers 7.12502
lthumb 4.67211 -13.6065
rfemur -30.1731 -2.13144 15.3448
rtibia 12.8621
rfoot -20.9592 -16.4992
rtoes -4.32993
lfemur -43.0289 -1.37592 -11.0961
ltibia 29.2937
lfoot -14.5948 7.36533
ltoes -56.0167
756
root -0.59434 18.8207 5.13911 27.7869 4.82808 -1.0826
lowerback 27.7449 0.168353 1.84913
upperback 3.16503 0.779323 0.0252751
thorax -11.8452 0.269851 -1.32826
lowerneck -1.74271 -14.6454 -15.5213
upperneck 1.67131 -19.0204 2.16197
head 2.65354 -9.54695 2.4583
rclavicle -2.3059e-014 -1.08338e-014
rhumerus 2.65994 26.9204 -71.3891
rradius 45.7273
rwrist 9.50648
rhand -24.615 -35.538
rfingers 7.12502
rthumb 1.8834 -65.5094
lclavicle -2.3059e-014 -1.08338e-014
lhumerus 8.51128 -24.3033 75.4935
lradius 44.6207
lwrist -13.1478
lhand -21.6465 -43.5863
lfingers 7.12502
lthumb 4.75011 -13.6595
rfemur -30.1609 -2.10611 15.3446
rtibia 12.8867
rfoot -20.96 -16.4424
rtoes -4.29611
lfemur -42.964 -1.29206 -11.1234
ltibia 29.2597
lfoot -14.6173 7.33331
ltoes -56.0609
757
root -0.597625 18.8219 5.14065 27.7568 4.75476 -1.06682
lowerback 27.7356 0.173523 1.83374
upperback 3.19227 0.775884 -0.011372
thorax -11.8085 0.268586 -1.35947
lowerneck -1.88835 -14.4464 -15.5647
upperneck 2.18347 -18.7027 1.94711
head 2.80987 -9.40779 2.39145
rclavicle 2.00773e-014 7.95139e-015
rhumerus 2.67329 26.8379 -71.4417
rradius 45.73
rwrist 9.52318
rhand -24.6294 -35.4431
rfingers 7.12502
rthumb 1.86946 -65.4146
lclavicle 2.00773e-014 7.95139e-015
lhumerus 8.53164 -24.3326 75.4254
lradius 44.6162
lwrist -13.1388
lhand -21.657 -43.6296
lfingers 7.12502
lthumb 4.74002 -13.7027
rfemur -30.1551 -2.13173 15.3483
rtibia 12.9212
rfoot -20.8566 -16.3868
rtoes -4.62551
lfemur -42.8858 -1.19191 -11.1852
ltibia 29.2258
lfoot -14.6383 7.27323
ltoes -56.0141
758
root -0.600889 18.8223 5.14096 27.7516 4.673 -1.01653
lowerback 27.7288 0.169976 1.78425
upperback 3.20186 0.75371 -0.0310456
thorax -11.795 0.260522 -1.34493
lowerneck -1.97607 -14.2259 -15.8873
upperneck 2.83078 -18.3689 2.20882
head 2.7508 -9.25146 2.22613
rclavicle -1.30204e-014 -1.00386e-014
rhumerus 2.71735 26.8989 -71.3942
rradius 45.7378
rwrist 9.51538
rhand -24.668 -35.3125
rfingers 7.12502
rthumb 1.83217 -65.2844
lclavicle -1.30204e-014 -1.00386e-014
lhumerus 8.49502 -24.3641 75.3491
lradius 44.6683
lwrist -13.1282
lhand -21.7363 -43.6276
lfingers 7.12502
lthumb 4.66345 -13.6989
rfemur -30.1844 -2.14001 15.2981
rtibia 12.9678
rfoot -20.7921 -16.3548
rtoes -4.85087
lfemur -42.8448 -1.12766 -11.2758
ltibia 29.1955
lfoot -14.607 7.26974
ltoes -56.0489
759
root -0.604225 18.8224 5.1402 27.7375 4.6146 -0.968851
lowerback 27.7608 0.155674 1.78469
upperback 3.20474 0.732722 -0.0565007
thorax -11.8087 0.250033 -1.36681
lowerneck -2.08401 -14.0502 -16.076
upperneck 3.33725 -18.0866 2.11871
head 2.90974 -9.13007 2.21578
rclavicle -1.09332e-015 -1.63997e-014
rhumerus 2.76138 27.0292 -71.2934
rradius 45.7518
rwrist 9.46746
rhand -24.6468 -35.3772
rfingers 7.12502
rthumb 1.8527 -65.3489
lclavicle -1.09332e-015 -1.63997e-014
lhumerus 8.52654 -24.4126 75.2494
lradius 44.659
lwrist -13.0798
lhand -21.6949 -43.5668
lfingers 7.12502
lthumb 4.7034 -13.639
rfemur -30.2114 -2.13221 15.2403
rtibia 13.0319
rfoot -20.8382 -16.3142
rtoes -4.66513
lfemur -42.8037 -1.13018 -11.3276
ltibia 29.1667
lfoot -14.6075 7.30254
ltoes -56.0412
760
root -0.606966 18.8222 5.14033 27.7194 4.58039 -0.936078
lowerback 27.7852 0.13004 1.84519
upperback 3.21612 0.713371 -0.0933073
thorax -11.8076 0.237366 -1.43676
lowerneck -2.17826 -13.9116 -16.2296
upperneck 3.81463 -17.8571 2.02417
head 3.05852 -9.03444 2.19866
rclavicle 8.94531e-016 2.08724e-015
rhumerus 2.77127 27.1491 -71.2184
rradius 45.7945
rwrist 9.37428
rhand -24.6452 -35.4672
rfingers 7.12502
rthumb 1.85426 -65.4389
lclavicle 8.94531e-016 2.08724e-015
lhumerus 8.55015 -24.4964 75.116
lradius 44.7087
lwrist -12.9342
lhand -21.5895 -43.476
lfingers 7.12502
lthumb 4.80519 -13.5505
rfemur -30.2274 -2.12423 15.2006
rtibia 13.0983
rfoot -20.9097 -16.2664
rtoes -4.34997
lfemur -42.7582 -1.13603 -11.3549
ltibia 29.1369
lfoot -14.6214 7.29781
ltoes -55.9543
761
root -0.608776 18.8218 5.14205 27.7024 4.53283 -0.916341
lowerback 27.78 0.111982 1.91141
upperback 3.23932 0.704794 -0.128884
thorax -11.777 0.229853 -1.51211
lowerneck -2.3182 -13.7624 -16.4349
upperneck 4.32308 -17.6037 1.97833
head 3.23116 -8.92841 2.19959
rclavicle 2.08724e-014 -1.44119e-014
rhumerus 2.76486 27.1975 -71.1795
rradius 45.843
rwrist 9.32462
rhand -24.6129 -35.3796
rfingers 7.12502
rthumb 1.88547 -65.351
lclavicle 2.08724e-014 -1.44119e-014
lhumerus 8.55576 -24.5398 75.0165
lradius 44.7461
lwrist -12.8828
lhand -21.5947 -43.4621
lfingers 7.12502
lthumb 4.80013 -13.5365
rfemur -30.2288 -2.07007 15.1535
rtibia 13.1444
rfoot -20.9838 -16.2315
rtoes -4.05848
lfemur -42.7102 -1.08117 -11.4056
ltibia 29.1122
lfoot -14.6063 7.27766
ltoes -56.0173
762
root -0.611929 18.8217 5.14503 27.6843 4.46353 -0.929558
lowerback 27.755 0.11492 1.96185
upperback 3.26717 0.719387 -0.152315
thorax -11.7301 0.234223 -1.5727
lowerneck -2.38107 -13.5741 -16.644
upperneck 4.72183 -17.3189 2.00111
head 3.36145 -8.80304 2.23483
rclavicle -4.57205e-015 -1.2921e-014
rhumerus 2.73198 27.1642 -71.1853
rradius 45.8871
rwrist 9.36648
rhand -24.552 -35.312
rfingers 7.12502
rthumb 1.94424 -65.2829
lclavicle -4.57205e-015 -1.2921e-014
lhumerus 8.61357 -24.5452 74.9559
lradius 44.6843
lwrist -12.9069
lhand -21.6541 -43.521
lfingers 7.12502
lthumb 4.74281 -13.5941
rfemur -30.2202 -1.99957 15.1463
rtibia 13.1649
rfoot -21.0104 -16.2227
rtoes -3.88764
lfemur -42.6565 -0.986129 -11.4326
ltibia 29.0993
lfoot -14.6118 7.2519
ltoes -56.0869
